<svg width="200" height="200" viewBox="0 0 200 200" fill="none" xmlns="http://www.w3.org/2000/svg">
<rect width="200" height="200" rx="50" fill="#F24741"/>
<path d="M126.789 59.8311L129.137 36.7891H152.814V42.2163H134.12L132.724 54.8164C134.988 53.4834 137.558 52.8169 140.436 52.8169C144.647 52.8169 147.99 54.2134 150.465 57.0063C152.941 59.7782 154.179 63.5339 154.179 68.2734C154.179 73.0342 152.888 76.7899 150.307 79.5405C147.746 82.27 144.16 83.6348 139.547 83.6348C135.464 83.6348 132.131 82.5028 129.55 80.2388C126.968 77.9748 125.498 74.8433 125.138 70.8442H130.692C131.052 73.4891 131.994 75.4886 133.517 76.8428C135.041 78.1758 137.051 78.8423 139.547 78.8423C142.277 78.8423 144.414 77.9113 145.958 76.0493C147.524 74.1873 148.307 71.6165 148.307 68.3369C148.307 65.2477 147.461 62.7721 145.768 60.9102C144.097 59.027 141.864 58.0854 139.071 58.0854C136.511 58.0854 134.501 58.6462 133.041 59.7676L131.486 61.0371L126.789 59.8311Z" fill="white"/>
<path d="M35 143.542L58.8387 137.432C69.1574 134.788 80.051 135.508 89.9319 139.487L100 143.542" stroke="white" stroke-width="6" stroke-linecap="round"/>
<path d="M165 143.542L141.161 137.432C130.843 134.788 119.949 135.508 110.068 139.487L99.9999 143.542" stroke="white" stroke-width="6" stroke-linecap="round"/>
<path d="M35 105.361L58.8387 99.2516C69.1574 96.607 80.051 97.3269 89.9319 101.306L100 105.361" stroke="white" stroke-width="6" stroke-linecap="round"/>
<path d="M165 105.361L141.161 99.2516C130.843 96.607 119.949 97.3269 110.068 101.306L99.9999 105.361" stroke="white" stroke-width="6" stroke-linecap="round"/>
<path d="M35 67.1807L58.8387 61.0709C69.1574 58.4263 80.051 59.1462 89.9319 63.1258L100 67.1807" stroke="white" stroke-width="6" stroke-linecap="round"/>
</svg>
